<svg width="149" height="192" viewBox="0 0 149 192" fill="none" xmlns="http://www.w3.org/2000/svg">
<path d="M15.5104 163.312C33.2164 165.107 72.1905 151.21 76.6992 128.268C82.3351 99.5911 58.4217 76.195 32.9046 90.9471C13.7359 102.029 20.6468 124.551 24.5266 131.3C26.6113 134.926 42.5795 153.638 72.3014 147.73C101.514 141.924 114.568 120.214 118.936 107.855C123.304 95.495 123.995 78.942 117.735 62.9211" stroke="url(#paint0_linear_27528_507)" stroke-width="2.5" stroke-linecap="round" stroke-dasharray="8 9"/>
<path d="M97.6296 22.6737C96.5778 23.2266 95.928 24.3085 95.9234 25.4921L95.7941 53.0859C95.775 54.3306 96.4548 55.4143 97.5596 55.9742C98.6854 56.5453 100.434 56.2018 101.371 55.3615L108.646 48.8364C109.394 48.1676 109.58 47.0781 109.097 46.2043L102.595 34.4209C102.25 33.8226 102.476 33.0638 103.093 32.7453C103.691 32.4212 104.444 32.64 104.787 33.2379L111.285 45.0371C111.768 45.9125 112.791 46.3475 113.766 46.0898L123.283 43.5773C124.41 43.2866 125.246 42.465 125.565 41.3901C125.603 41.2637 125.645 41.1214 125.665 40.9898C125.874 39.7109 125.316 38.4841 124.225 37.772L100.94 22.8117C99.952 22.1638 98.6798 22.1203 97.6296 22.6737Z" fill="url(#paint1_linear_27528_507)"/>
<path opacity="0.4" fill-rule="evenodd" clip-rule="evenodd" d="M110.591 58.9643C110.501 59.2678 110.294 59.5373 109.99 59.6998C109.384 60.0268 108.626 59.8066 108.296 59.2073L106.753 56.4149C106.424 55.816 106.648 55.0652 107.252 54.7377C107.858 54.4123 108.617 54.633 108.948 55.2307L110.488 58.0243C110.654 58.3234 110.681 58.6608 110.591 58.9643ZM115.395 53.0062C115.305 53.3097 115.098 53.5793 114.794 53.7417C114.188 54.0687 113.431 53.8485 113.1 53.2492L111.558 50.4568C111.229 49.8579 111.452 49.1071 112.056 48.7796C112.662 48.4542 113.421 48.6749 113.752 49.2727L115.292 52.0662C115.459 52.3653 115.485 52.7027 115.395 53.0062ZM122.861 53.7264C123.165 53.5639 123.372 53.2944 123.462 52.9909C123.552 52.6874 123.526 52.3499 123.359 52.0509L121.819 49.2573C121.488 48.6596 120.729 48.4389 120.123 48.7643C119.519 49.0918 119.296 49.8426 119.625 50.4415L121.167 53.2339C121.498 53.8332 122.255 54.0534 122.861 53.7264Z" fill="url(#paint2_linear_27528_507)"/>
<defs>
<linearGradient id="paint0_linear_27528_507" x1="26.4992" y1="92.0158" x2="109.209" y2="126.05" gradientUnits="userSpaceOnUse">
<stop stop-color="#F99462"/>
<stop offset="1" stop-color="#F99462" stop-opacity="0.65"/>
</linearGradient>
<linearGradient id="paint1_linear_27528_507" x1="102.397" y1="57.4224" x2="111.517" y2="26.5633" gradientUnits="userSpaceOnUse">
<stop stop-color="#F99462"/>
<stop offset="1" stop-color="#F99462" stop-opacity="0.65"/>
</linearGradient>
<linearGradient id="paint2_linear_27528_507" x1="112.562" y1="60.8248" x2="116.444" y2="47.6691" gradientUnits="userSpaceOnUse">
<stop stop-color="#F99462"/>
<stop offset="1" stop-color="#F99462" stop-opacity="0.65"/>
</linearGradient>
</defs>
</svg>
