<svg width="72" height="70" viewBox="0 0 72 70" fill="none" xmlns="http://www.w3.org/2000/svg">
<g filter="url(#filter0_d_27528_531)">
<rect x="11" y="18.5891" width="40.0706" height="38.2492" rx="6" transform="rotate(-17.4199 11 18.5891)" fill="url(#paint0_linear_27528_531)"/>
<g filter="url(#filter1_d_27528_531)">
<ellipse cx="8.7002" cy="8.65887" rx="8.7002" ry="8.65887" transform="matrix(0.996278 -0.0861942 0.0881308 0.996109 24.6313 22.1663)" fill="white"/>
<path d="M45.2148 40.4283C44.8771 40.4466 44.5448 40.3373 44.2845 40.1223L42.0219 37.9273C41.5466 37.5674 41.4508 36.8941 41.807 36.4179C41.9757 36.2167 42.2181 36.0908 42.4806 36.0681C42.7431 36.0454 43.0039 36.1278 43.2054 36.2969L45.9676 38.1162C46.3728 38.4604 46.5369 39.0092 46.3868 39.5173C46.2366 40.0254 45.8001 40.3979 45.2725 40.4682L45.2148 40.4283Z" fill="white"/>
</g>
</g>
<defs>
<filter id="filter0_d_27528_531" x="0.519409" y="0.112549" width="70.6447" height="69.4521" filterUnits="userSpaceOnUse" color-interpolation-filters="sRGB">
<feFlood flood-opacity="0" result="BackgroundImageFix"/>
<feColorMatrix in="SourceAlpha" type="matrix" values="0 0 0 0 0 0 0 0 0 0 0 0 0 0 0 0 0 0 127 0" result="hardAlpha"/>
<feOffset dy="4"/>
<feGaussianBlur stdDeviation="6"/>
<feComposite in2="hardAlpha" operator="out"/>
<feColorMatrix type="matrix" values="0 0 0 0 0 0 0 0 0 0 0 0 0 0 0 0 0 0 0.12 0"/>
<feBlend mode="normal" in2="BackgroundImageFix" result="effect1_dropShadow_27528_531"/>
<feBlend mode="normal" in="SourceGraphic" in2="effect1_dropShadow_27528_531" result="shape"/>
</filter>
<filter id="filter1_d_27528_531" x="13.3604" y="13.3833" width="45.0813" height="43.085" filterUnits="userSpaceOnUse" color-interpolation-filters="sRGB">
<feFlood flood-opacity="0" result="BackgroundImageFix"/>
<feColorMatrix in="SourceAlpha" type="matrix" values="0 0 0 0 0 0 0 0 0 0 0 0 0 0 0 0 0 0 127 0" result="hardAlpha"/>
<feOffset dy="4"/>
<feGaussianBlur stdDeviation="6"/>
<feComposite in2="hardAlpha" operator="out"/>
<feColorMatrix type="matrix" values="0 0 0 0 0 0 0 0 0 0 0 0 0 0 0 0 0 0 0.06 0"/>
<feBlend mode="normal" in2="BackgroundImageFix" result="effect1_dropShadow_27528_531"/>
<feBlend mode="normal" in="SourceGraphic" in2="effect1_dropShadow_27528_531" result="shape"/>
</filter>
<linearGradient id="paint0_linear_27528_531" x1="8.19407" y1="39.1401" x2="65.608" y2="35.0236" gradientUnits="userSpaceOnUse">
<stop stop-color="#47C2FF"/>
<stop offset="1" stop-color="#63CBFE" stop-opacity="0.65"/>
</linearGradient>
</defs>
</svg>
